<svg xmlns="http://www.w3.org/2000/svg" height="33.76" width="162.613"><defs><clipPath id="a"><path d="M0 0h1219.61v253H0z"/></clipPath></defs><g clip-path="url(#a)" transform="matrix(.13333 0 0 -.13333 0 33.76)"><path d="M291.852 166.074h59.765v29.981H260.27V54.335h31.796v52.97h52.364v28.789h-52.578v29.98M401.246 79.324c-11.387 0-22.383 8.196-22.383 24.785 0 16.789 10.996 24.582 22.383 24.582 11.602 0 22.402-7.793 22.402-24.582 0-16.796-10.8-24.785-22.402-24.785zm0 77.356c-29.57 0-52.754-21.789-52.754-52.571 0-30.78 23.184-52.773 52.754-52.773 29.785 0 52.774 21.992 52.774 52.773 0 30.782-22.989 52.571-52.774 52.571M493.062 140.293v13.387h-29.394V54.336h30.391v43.379c0 19.785 10.996 26.98 23.183 26.98 3.008 0 6.211-.195 9.61-.996v29.981c-2.012.597-5 .996-8.008.996-7.989 0-20.586-3.192-25.782-14.383M653.023 156.68c-13.398 0-22.988-4.395-30.8-15.598-4.981 9.797-15.176 15.598-29.375 15.598-10.801 0-23.594-5.598-28.594-14.395v11.395H535.27V54.336h30.39v57.168c0 8.992 5.801 17.187 16.387 17.187 10.996 0 15.996-7.394 15.996-16.789V54.336h29.98v57.371c0 8.789 5.801 16.984 16.602 16.984 10.781 0 15.781-7.394 15.781-16.789V54.336h29.395v64.363c0 26.985-17.989 37.981-36.778 37.981M705.465 54.336h30.39v99.344h-30.39zM720.465 201.855c-9.59 0-17.598-8-17.598-17.793 0-9.796 8.008-17.785 17.598-17.785 10 0 17.988 7.989 17.988 17.785 0 9.793-7.988 17.793-17.988 17.793M798.238 79.324c-11.797 0-22.383 8.39-22.383 24.785 0 16.594 10.586 24.582 22.383 24.582 11.797 0 22.383-7.988 22.383-24.582 0-16.394-10.586-24.785-22.383-24.785zm51.973 119.727H820.23v-53.164c-2.402 3.801-9.804 10.195-26.777 10.195-28.203 0-48.183-22.187-48.183-51.777 0-30.586 21.191-52.168 49.179-52.168 11.992 0 21.973 5 26.582 11.797 0-4.004.606-8.399.801-9.598h29.18c-.196 2.195-.801 8.797-.801 17.793V199.05M920.641 93.309c0-15.391-9.2-19.786-18.203-19.786-8.379 0-11.778 5-11.778 10.196 0 6.992 4.785 9.992 11.192 10.996l18.789 3zm29.57 24.992c0 20.39-11.777 38.379-43.965 38.379-29.18 0-42.383-18.789-43.574-32.981l26.387-5.398c.586 7.39 6.386 14.59 16.992 14.59 9.59 0 14.59-4.993 14.59-10.793 0-3.399-1.797-5.996-7.207-6.797l-23.379-3.594c-16.387-2.402-29.395-12.402-29.395-29.988 0-15.793 12.598-30.188 34.395-30.188 13.183 0 22.773 5.606 27.988 13.996 0-6.797.781-10.39.996-11.191h27.383c-.195.996-1.211 7.598-1.211 15.39v48.575M1017.83 79.324c-11.78 0-22.58 8.39-22.58 24.785 0 16.789 10.8 24.582 22.58 24.582 11.8 0 22.4-7.793 22.4-24.582 0-16.59-10.6-24.785-22.4-24.785zm6.6 76.758c-13.59 0-24.59-5.605-28.789-11.797v54.766h-29.786V54.336h29.395v11.191c4.59-7.597 14.79-13.39 27.99-13.39 27.77 0 47.36 21.789 47.36 52.168 0 29.785-17.38 51.777-46.17 51.777M1080.25 54.336h30.39V199.05h-30.39zM1150.45 115.898c.6 7.403 6.99 16.797 19.78 16.797 14.4 0 19.59-9.199 20-16.797zm69.16-10.195c0 31.981-18.99 50.977-49.77 50.977-25.8 0-49.57-20.391-49.57-52.375 0-33.38 24.38-52.97 51.76-52.97 25.19 0 40.98 14.396 45.78 31.583l-25.39 7.2c-2.79-7.794-8.99-13-19.98-13-11.8 0-21.99 8-22.6 19.19H1219c.22.606.61 5.204.61 9.395M55.8 253.191L0 23.691l55.8 67.68v161.82" fill="#211f1e"/><path d="M55.8 253.191l128.337-119.968L55.801 91.371v161.82" fill="#cec8c7"/><path d="M55.8 0l128.337 133.223L55.801 91.371V0" fill="#7d7573"/><path d="M0 23.691l55.8 67.68V0L0 23.691" fill="#4c4544"/></g></svg>